PathFileType  4	(X/Y/Z) C:\Users\antoi\Documents\MyRepositories\mobilecap\ResultsAnalysis
DataRate	CameraRate	NumFrames	NumMarkers	Units	OrigDataRate	OrigDataStartFrame	OrigNumFrames
100.0	100.0	6	55	mm	100.0	376	501
Frame#	Time	r_knee			r_shank_antsup			r_ankle			r_calc			r_5meta			r_toe			L_knee			L_shank_antsup			L_ankle			L_calc			L_5meta			L_toe			r_mknee			r_mankle			L_mknee			L_mankle			r_sh2			r_sh3			r_sh4			L_sh2			L_sh3			r_thigh1			r_thigh2			r_thigh3			r_thigh4			r_thigh5			L_thigh1			L_thigh2			L_thigh3			L_thigh4			r.ASIS			r.PSIS			L.ASIS			L.PSIS			C7			R_Shoulder			L_Shoulder			R_Sternum			L_Sternum			R_humerus			R_elbow_med			R_elbow_lat			R_forearm			R_wrist_radius			R_wrist_ulna			L_humerus			L_elbow_med			L_elbow_lat			L_forearm			L_wrist_radius			L_wrist_ulna			R_HJC			L_HJC			R_HJC_reg			L_HJC_reg			
		X1	Y1	Z1	X2	Y2	Z2	X3	Y3	Z3	X4	Y4	Z4	X5	Y5	Z5	X6	Y6	Z6	X7	Y7	Z7	X8	Y8	Z8	X9	Y9	Z9	X10	Y10	Z10	X11	Y11	Z11	X12	Y12	Z12	X13	Y13	Z13	X14	Y14	Z14	X15	Y15	Z15	X16	Y16	Z16	X17	Y17	Z17	X18	Y18	Z18	X19	Y19	Z19	X20	Y20	Z20	X21	Y21	Z21	X22	Y22	Z22	X23	Y23	Z23	X24	Y24	Z24	X25	Y25	Z25	X26	Y26	Z26	X27	Y27	Z27	X28	Y28	Z28	X29	Y29	Z29	X30	Y30	Z30	X31	Y31	Z31	X32	Y32	Z32	X33	Y33	Z33	X34	Y34	Z34	X35	Y35	Z35	X36	Y36	Z36	X37	Y37	Z37	X38	Y38	Z38	X39	Y39	Z39	X40	Y40	Z40	X41	Y41	Z41	X42	Y42	Z42	X43	Y43	Z43	X44	Y44	Z44	X45	Y45	Z45	X46	Y46	Z46	X47	Y47	Z47	X48	Y48	Z48	X49	Y49	Z49	X50	Y50	Z50	X51	Y51	Z51	X52	Y52	Z52	X53	Y53	Z53	X54	Y54	Z54	X55	Y55	Z55	

376	3.75000000	-253.22085	475.51005	-420.46803	-230.15718	421.89207	-413.30355	-256.23777	86.93030	-388.02654	-308.11845	54.01064	-429.98332	-147.35347	42.62930	-354.10711	-109.06359	60.38695	-406.93770	-226.99088	473.22951	-774.07398	-198.33356	392.56987	-770.96907	-251.83537	94.69815	-815.97165	-308.61007	50.57393	-779.23495	-147.63165	44.89284	-846.19403	-101.18602	59.26492	-789.90480	-247.46092	448.19102	-547.78561	-239.92631	96.71512	-465.98009	-235.33386	447.96541	-647.32016	-240.38722	97.47502	-735.66668	-239.57414	311.46453	-389.18138	-302.75431	434.32205	-393.08727	-319.74650	317.24555	-378.26333	-275.23045	416.96530	-814.39429	-283.08110	296.35648	-837.38430	-157.33741	721.25817	-396.36543	-168.17151	607.64154	-406.01926	-231.72133	588.83525	-397.09033	-270.50963	727.55563	-408.84977	-276.71529	611.28978	-420.45496	-133.79469	747.81623	-792.22603	-141.05626	607.33938	-772.99140	-245.37854	748.47539	-808.31157	-254.37264	613.39690	-780.37837	-98.39134	918.70944	-479.75866	-305.98898	943.78781	-564.72844	-89.50502	924.66494	-704.22874	-300.49502	946.78071	-644.21682	-255.38371	1384.82003	-596.85624	-206.00989	1360.88877	-453.29898	-211.36254	1358.27386	-734.75387	-126.09215	1332.20328	-571.54075	-126.61897	1330.91899	-611.40102	-180.99171	1252.93016	-386.14030	-249.12778	1043.60033	-391.28833	-228.91324	1060.57594	-333.90408	-171.91783	1000.06152	-291.63501	-131.43354	862.89195	-254.88339	-167.29033	860.81171	-240.52560	-205.95522	1260.52441	-811.37345	-240.95819	1039.62096	-801.17751	-230.98221	1064.53443	-859.68457	-173.55110	984.56512	-902.04793	-128.60537	864.39395	-922.15633	-165.83615	859.34577	-937.87414	-178.24495	829.32957	-493.93298	-168.81756	837.35184	-701.07086	-167.61610	847.12984	-518.18163	-157.39641	852.69714	-666.04264	
377	3.76000000	-253.21502	475.48878	-420.47876	-230.16978	421.86331	-413.32285	-256.22570	86.94799	-388.02750	-308.13839	54.00310	-429.99080	-147.33380	42.61661	-354.14018	-109.08309	60.39547	-406.96704	-226.97692	473.21990	-774.06510	-198.33266	392.53737	-770.98489	-251.83573	94.69376	-815.96562	-308.57941	50.59836	-779.29219	-147.64817	44.90627	-846.22075	-101.15218	59.26093	-789.87831	-247.46705	448.18598	-547.78126	-239.92506	96.68515	-465.90343	-235.32754	447.92420	-647.30333	-240.30943	97.59268	-735.67056	-239.55185	311.53039	-389.10916	-303.69015	433.30936	-393.27318	-319.75835	317.14541	-378.31746	-275.22263	416.95540	-814.37921	-283.07665	296.35314	-837.36780	-157.33731	721.24525	-396.33533	-168.12427	607.77332	-405.90312	-231.66442	588.86344	-397.08786	-270.50534	727.55668	-408.86400	-276.72152	611.31608	-420.47130	-133.76285	747.81342	-792.24532	-141.04821	607.33047	-772.99110	-245.37331	748.45776	-808.33048	-254.36604	613.39777	-780.43283	-98.42037	918.69279	-479.76500	-305.97455	943.77580	-564.80982	-89.49510	924.64674	-704.21693	-300.49528	946.82134	-644.24952	-255.37515	1384.83346	-596.93194	-205.99590	1360.91013	-453.29345	-211.34306	1358.26926	-734.75050	-126.08746	1332.20529	-571.53138	-126.61992	1330.91086	-611.38984	-180.96727	1252.92831	-386.14354	-249.11345	1043.63812	-391.28903	-228.83909	1060.59696	-333.84827	-171.83195	1000.04835	-291.61801	-131.35466	862.91370	-254.93818	-167.19166	860.87932	-240.48129	-205.90181	1260.52293	-811.37849	-240.95288	1039.62421	-801.17972	-230.92856	1064.52347	-859.61682	-173.53749	984.54727	-902.03668	-128.61134	864.36883	-922.12299	-165.82762	859.34282	-937.87497	-178.28610	829.31794	-493.96240	-168.80917	837.35275	-701.09754	-167.59423	847.04987	-518.22380	-157.39656	852.71805	-666.07161	
378	3.77000000	-253.23306	475.49697	-420.50392	-230.17517	421.84025	-413.33387	-256.24358	86.92113	-388.03636	-308.14455	53.98276	-429.99808	-147.33332	42.58561	-354.13195	-109.08206	60.40181	-406.98025	-226.94263	473.24941	-774.15242	-198.32707	392.49920	-771.00295	-251.84166	94.69152	-815.96163	-308.61718	50.58263	-779.32173	-147.66313	44.91092	-846.24027	-101.16038	59.22860	-789.85696	-247.46869	448.18732	-547.78277	-239.94242	96.68597	-465.90138	-235.31399	447.94193	-647.33569	-240.29269	97.60799	-735.66547	-239.58999	311.52508	-389.08541	-303.64182	433.33972	-393.27989	-319.76734	317.08438	-378.31040	-275.20092	416.92645	-814.34027	-283.04727	296.38627	-837.35380	-157.32344	721.23778	-396.30722	-168.08512	607.84586	-405.82605	-231.63832	588.88313	-397.09379	-270.49317	727.55160	-408.90939	-276.73680	611.25274	-420.48725	-133.75315	747.81107	-792.25283	-141.00664	607.27892	-772.94879	-245.37544	748.45548	-808.30921	-254.33584	613.38759	-780.45214	-98.40556	918.67172	-479.73977	-305.93371	943.82376	-564.84572	-89.48639	924.62324	-704.20421	-300.47880	946.81258	-644.22198	-255.37488	1384.81865	-596.92630	-205.98669	1360.91594	-453.30053	-211.32309	1358.26983	-734.75139	-126.07133	1332.19267	-571.51434	-126.60182	1330.90453	-611.38357	-180.95088	1252.93959	-386.14861	-249.11271	1043.62536	-391.27936	-228.77836	1060.59313	-333.81738	-171.74953	1000.04327	-291.58224	-131.29522	862.89791	-254.98065	-167.10250	860.91815	-240.47464	-205.85967	1260.51999	-811.37609	-240.94573	1039.61969	-801.18309	-230.91657	1064.51553	-859.61939	-173.53224	984.53665	-902.04392	-128.60570	864.36042	-922.11652	-165.82071	859.34225	-937.85772	-178.29196	829.32160	-493.94493	-168.80515	837.33599	-701.08041	-167.60458	847.11464	-518.13290	-157.44327	852.68206	-665.99501	
379	3.78000000	-253.23506	475.51482	-420.49185	-230.16538	421.82556	-413.32438	-256.28891	86.86710	-388.04944	-308.12586	53.98706	-430.00208	-147.34540	42.55494	-354.12290	-109.07261	60.39279	-406.96479	-226.91977	473.27145	-774.21442	-198.30937	392.49044	-770.99254	-251.84197	94.68476	-815.95967	-308.67394	50.55044	-779.31248	-147.65585	44.89442	-846.22555	-101.20667	59.20992	-789.87555	-247.46385	448.18921	-547.78454	-239.93734	96.70012	-465.95950	-235.29677	447.98723	-647.37912	-240.32796	97.54059	-735.67343	-239.61402	311.49705	-389.08648	-302.63713	434.29877	-393.09628	-319.76774	317.10944	-378.28399	-275.18278	416.91177	-814.29968	-283.02096	296.39674	-837.36478	-157.31388	721.25150	-396.32395	-168.11662	607.82715	-405.80270	-231.64663	588.87518	-397.09334	-270.47020	727.54471	-408.92181	-276.73161	611.19519	-420.48294	-133.78209	747.81184	-792.23770	-140.96276	607.25186	-772.91218	-245.37386	748.46613	-808.26435	-254.31809	613.38499	-780.43801	-98.36042	918.65683	-479.70922	-305.89203	943.86352	-564.83318	-89.47996	924.60963	-704.19547	-300.46984	946.82630	-644.20990	-255.35602	1384.79845	-596.89859	-205.97704	1360.90091	-453.30828	-211.28753	1358.28061	-734.74837	-126.05013	1332.17427	-571.49118	-126.57462	1330.90688	-611.37656	-180.93506	1252.93406	-386.14984	-249.11818	1043.57874	-391.26039	-228.72319	1060.57854	-333.80478	-171.67907	1000.04640	-291.55740	-131.21433	862.88308	-254.97332	-167.02332	860.89962	-240.46038	-205.83641	1260.52063	-811.37368	-240.93994	1039.61831	-801.18125	-230.90782	1064.51200	-859.60683	-173.52151	984.53422	-902.02919	-128.59553	864.35932	-922.11549	-165.81664	859.34558	-937.84001	-178.27989	829.32823	-493.92595	-168.80478	837.33223	-701.06236	-167.57799	847.14433	-518.05328	-157.47638	852.66381	-665.93464	
380	3.79000000	-253.22023	475.49707	-420.46216	-230.17544	421.80728	-413.33028	-256.32027	86.83553	-388.05315	-308.11327	53.97301	-429.97317	-147.35732	42.55526	-354.12853	-109.08192	60.38703	-406.94499	-226.93082	473.25436	-774.14977	-198.28436	392.51329	-770.94952	-251.85420	94.70105	-815.99558	-308.67528	50.56168	-779.30813	-147.63823	44.88184	-846.19869	-101.22171	59.23243	-789.90470	-247.45813	448.18652	-547.78219	-239.92786	96.73068	-466.06704	-235.28395	447.99344	-647.38981	-240.37922	97.46593	-735.69292	-239.56388	311.44892	-389.18767	-301.99111	434.88350	-392.96951	-319.73870	317.20753	-378.24986	-275.16746	416.91434	-814.27491	-283.01965	296.37614	-837.37332	-157.32949	721.26404	-396.35146	-168.19325	607.82000	-405.73212	-231.65003	588.86386	-397.08891	-270.46687	727.54206	-408.88703	-276.71292	611.22169	-420.46949	-133.75960	747.80778	-792.24784	-140.94748	607.28038	-772.91347	-245.36450	748.48116	-808.22961	-254.30954	613.39732	-780.38330	-98.32866	918.65298	-479.69756	-305.88250	943.82444	-564.76280	-89.46781	924.61343	-704.19450	-300.50336	946.85445	-644.23224	-255.33526	1384.79384	-596.87698	-205.95401	1360.88165	-453.31232	-211.24151	1358.29282	-734.73286	-126.03369	1332.17112	-571.47327	-126.55588	1330.91336	-611.36864	-180.90334	1252.91299	-386.14613	-249.11098	1043.51051	-391.24667	-228.66256	1060.57870	-333.78366	-171.62381	1000.05062	-291.55546	-131.11431	862.88312	-254.92685	-166.94612	860.85465	-240.43401	-205.81199	1260.53522	-811.36347	-240.93351	1039.62914	-801.17558	-230.87122	1064.50024	-859.49149	-173.50154	984.54030	-902.01611	-128.58444	864.36283	-922.10610	-165.81073	859.35312	-937.82394	-178.25831	829.31488	-493.92460	-168.80577	837.34254	-701.06114	-167.48367	847.04946	-518.05733	-157.47337	852.68793	-665.94716	
381	3.80000000	-253.22595	475.44121	-420.46774	-230.20224	421.79134	-413.35226	-256.31945	86.81559	-388.04852	-308.11875	53.92583	-429.92712	-147.35227	42.59274	-354.10019	-109.10036	60.38464	-406.92210	-226.95065	473.23486	-774.03765	-198.26939	392.53543	-770.91798	-251.87736	94.74092	-816.04236	-308.62523	50.60035	-779.30303	-147.63041	44.89123	-846.18778	-101.19299	59.25899	-789.89343	-247.45638	448.18536	-547.78010	-239.94005	96.79659	-466.20738	-235.28102	447.93936	-647.35072	-240.43255	97.40186	-735.70124	-239.51574	311.38527	-389.31758	-302.05792	434.80355	-392.97823	-319.75169	317.21778	-378.21965	-275.15284	416.92264	-814.28446	-283.02776	296.38637	-837.35671	-157.34178	721.24412	-396.33567	-168.23374	607.86054	-405.63350	-231.64387	588.86467	-397.08196	-270.47375	727.53923	-408.86433	-276.68728	611.26366	-420.44736	-133.69320	747.80348	-792.27667	-140.96092	607.32674	-772.93716	-245.35601	748.50107	-808.21338	-254.28670	613.41671	-780.32447	-98.31278	918.65903	-479.70043	-305.89518	943.75811	-564.68269	-89.44660	924.63218	-704.19933	-300.52878	946.78952	-644.18707	-255.34169	1384.79687	-596.81637	-205.92143	1360.85903	-453.30536	-211.20657	1358.30614	-734.72372	-126.01970	1332.18485	-571.47076	-126.53984	1330.92381	-611.37089	-180.84615	1252.88481	-386.12933	-249.09045	1043.43074	-391.21494	-228.61175	1060.57816	-333.77133	-171.57298	1000.04776	-291.55749	-131.02785	862.88324	-254.87885	-166.87710	860.81706	-240.42798	-205.77646	1260.55575	-811.32749	-240.93099	1039.64474	-801.17106	-230.83327	1064.49828	-859.38303	-173.47763	984.54708	-902.02012	-128.56980	864.37942	-922.09102	-165.79791	859.36494	-937.81168	-178.19861	829.29027	-493.90489	-168.78837	837.33319	-701.04276	-167.43323	847.03859	-518.04626	-157.45073	852.67752	-665.93964	
